<svg xmlns="http://www.w3.org/2000/svg" viewBox="0 0 899 825" role="img" aria-label="DC recursive triangle logo">
  <path d="M 525 400 L 512 413 L 499 432 L 505 461 L 505 487 L 501 511 L 493 531 L 493 536 L 504 557 L 523 579 L 550 596 L 578 604 L 653 605 L 658 601 L 659 596 L 643 568 L 638 565 L 583 564 L 570 560 L 553 550 L 537 532 L 530 518 L 526 503 L 526 479 L 530 463 L 543 441 L 557 428 L 570 421 L 591 416 L 634 416 L 665 424 L 682 435 L 701 457 L 823 665 L 829 681 L 830 702 L 825 720 L 814 737 L 801 748 L 786 755 L 777 757 L 492 757 L 480 761 L 471 773 L 470 786 L 474 795 L 480 801 L 487 804 L 784 804 L 810 797 L 837 781 L 847 772 L 863 751 L 874 725 L 878 703 L 875 666 L 862 636 L 733 418 L 720 404 L 701 390 L 687 383 L 661 376 L 593 375 L 574 377 L 549 385 Z M 161 425 L 97 531 L 26 655 L 20 682 L 21 713 L 30 741 L 42 761 L 59 779 L 78 792 L 98 800 L 121 804 L 366 804 L 395 798 L 423 783 L 439 769 L 452 752 L 537 609 L 536 605 L 515 592 L 502 579 L 498 580 L 409 730 L 395 744 L 379 753 L 361 757 L 124 757 L 99 749 L 80 732 L 72 718 L 68 703 L 68 686 L 72 670 L 201 449 L 200 434 L 191 423 L 175 419 Z M 483 26 L 457 20 L 441 20 L 420 24 L 394 37 L 375 55 L 220 316 L 212 342 L 209 364 L 210 391 L 214 411 L 224 437 L 239 462 L 275 507 L 277 507 L 277 432 L 265 412 L 257 383 L 257 362 L 262 341 L 407 93 L 422 76 L 431 71 L 441 68 L 464 70 L 475 76 L 487 88 L 623 323 L 634 332 L 649 333 L 659 328 L 666 318 L 667 303 L 529 64 L 520 52 L 506 39 Z M 299 363 L 293 372 L 293 588 L 396 588 L 424 581 L 448 568 L 464 554 L 480 531 L 489 508 L 492 493 L 493 470 L 490 447 L 483 425 L 470 403 L 456 388 L 441 377 L 406 363 L 392 361 L 304 361 Z M 225 483 L 144 622 L 139 641 L 139 660 L 145 681 L 153 694 L 175 714 L 201 723 L 357 723 L 372 719 L 385 712 L 406 692 L 414 677 L 219 677 L 209 675 L 196 666 L 190 654 L 190 640 L 193 631 L 257 521 L 255 513 L 229 482 Z M 308 336 L 310 341 L 361 340 L 426 231 L 441 221 L 454 221 L 463 225 L 474 237 L 546 370 L 565 364 L 594 360 L 566 301 L 508 202 L 500 193 L 484 181 L 456 172 L 441 172 L 423 176 L 404 186 L 391 198 L 382 210 Z M 679 493 L 673 494 L 651 530 L 651 538 L 706 635 L 708 653 L 703 664 L 693 673 L 679 677 L 521 677 L 494 719 L 494 723 L 697 723 L 721 715 L 740 700 L 750 686 L 757 668 L 759 647 L 756 630 L 751 616 L 733 583 Z M 335 400 L 387 400 L 403 403 L 426 415 L 442 433 L 452 459 L 452 491 L 448 505 L 440 520 L 426 535 L 417 541 L 390 549 L 334 548 Z" fill="#1F2730" fill-rule="evenodd"/>
</svg>
